<svg width="19" height="18" viewBox="0 0 19 18" fill="none" xmlns="http://www.w3.org/2000/svg">
<path d="M14.1666 14C13.2499 14 12.5083 14.75 12.5083 15.6667C12.5083 16.5834 13.2499 17.3334 14.1666 17.3334C15.0833 17.3334 15.8333 16.5834 15.8333 15.6667C15.8333 14.75 15.0833 14 14.1666 14ZM5.83325 14C4.91658 14 4.17492 14.75 4.17492 15.6667C4.17492 16.5834 4.91658 17.3334 5.83325 17.3334C6.74992 17.3334 7.49992 16.5834 7.49992 15.6667C7.49992 14.75 6.74992 14 5.83325 14ZM5.83325 11.5L6.74992 9.83335H12.9583C13.5833 9.83335 14.1333 9.49169 14.4166 8.97502L18.0833 2.33335H4.34159L3.55825 0.666687H0.833252V2.33335H2.49992L5.49992 8.65835L3.01659 13.1667H15.8333V11.5H5.83325Z" fill="#727A82"/>
</svg>
