<svg width="72" height="72" viewBox="0 0 72 72" fill="none" xmlns="http://www.w3.org/2000/svg">
<rect width="72" height="72" rx="36" fill="#FDEFEE"/>
<rect x="12" y="12" width="48" height="48" rx="24" fill="#E34338"/>
<g clip-path="url(#clip0_3457_46349)">
<path d="M42.3002 29.71C41.9102 29.32 41.2802 29.32 40.8902 29.71L36.0002 34.59L31.1102 29.7C30.7202 29.31 30.0902 29.31 29.7002 29.7C29.3102 30.09 29.3102 30.72 29.7002 31.11L34.5902 36L29.7002 40.89C29.3102 41.28 29.3102 41.91 29.7002 42.3C30.0902 42.69 30.7202 42.69 31.1102 42.3L36.0002 37.41L40.8902 42.3C41.2802 42.69 41.9102 42.69 42.3002 42.3C42.6902 41.91 42.6902 41.28 42.3002 40.89L37.4102 36L42.3002 31.11C42.6802 30.73 42.6802 30.09 42.3002 29.71Z" fill="white"/>
</g>
<defs>
<clipPath id="clip0_3457_46349">
<rect width="24" height="24" fill="white" transform="translate(24 24)"/>
</clipPath>
</defs>
</svg>
