<svg width="16" height="22" viewBox="0 0 16 22" fill="none" xmlns="http://www.w3.org/2000/svg">
<path d="M15.313 10.1765H8.47301L8.90301 12.5275H11.227V15.6505C10.495 15.9865 9.67801 16.1205 8.81701 16.1205C6.32301 16.1205 5.11801 14.8785 5.11801 11.2175C5.11801 7.75851 6.96801 6.31451 9.46301 6.31451C10.926 6.31451 11.872 6.65051 13.119 7.38951L15.27 5.64351C14.195 4.90451 12.904 4.33351 11.27 4.06451V0.874512H9.54801V3.89751H9.33301C8.64501 3.89751 7.95601 3.96451 7.31101 4.06451V0.874512H5.59101V4.50151C2.62301 5.50851 0.687012 7.79251 0.687012 11.2175C0.687012 14.8775 2.32201 17.2295 5.50501 18.1355V21.1255H7.22501V18.4715C7.74101 18.5385 8.30101 18.5715 8.86001 18.5715C9.07501 18.5715 9.24701 18.5715 9.46201 18.5385V21.1245H11.182V18.3705C12.645 18.1355 14.065 17.6995 15.312 17.0945V10.1765H15.313Z" fill="currentColor"/>
</svg>
