<svg width="14" height="16" viewBox="0 0 14 16" fill="none" xmlns="http://www.w3.org/2000/svg">
<path d="M0.996985 13.643H2.79699C1.95698 13.163 1.29698 12.503 0.816985 11.663C0.336985 10.823 0.0969849 9.82097 0.0969849 8.65697C0.0969849 7.14497 0.522985 5.83697 1.37498 4.73297C2.22698 3.61697 3.36099 2.85497 4.77699 2.44697V0.214966H6.19899V2.17697C6.55899 2.15297 6.83499 2.14097 7.02699 2.14097C7.20699 2.14097 7.47699 2.15297 7.83699 2.17697V0.214966H9.27699V2.46497C10.681 2.88497 11.803 3.67697 12.643 4.84097C13.483 5.99297 13.903 7.39697 13.903 9.05297H11.257C11.257 7.99697 11.083 7.12697 10.735 6.44297C10.399 5.74697 9.91299 5.22497 9.27699 4.87697V9.05297H7.83699V4.42697C7.58499 4.39097 7.31499 4.37297 7.02699 4.37297C6.75099 4.37297 6.47499 4.39097 6.19899 4.42697V9.05297H4.77699V4.85897C4.12899 5.20697 3.63099 5.71697 3.28299 6.38897C2.93499 7.06097 2.76099 7.90697 2.76099 8.92697C2.76099 9.83897 2.95299 10.637 3.33699 11.321C3.73299 11.993 4.28499 12.509 4.99299 12.869C5.70099 13.229 6.51098 13.409 7.42299 13.409H13.129V15.785H0.996985V13.643Z" fill="#727A82"/>
</svg>
